<svg id="Layer_1" data-name="Layer 1" xmlns="http://www.w3.org/2000/svg" viewBox="0 0 100 100"><defs><style>.cls-1{fill:#212121;}.cls-2{fill:#f1f2f2;}</style></defs><rect class="cls-1" width="100" height="100"/><path class="cls-2" d="M24.32,42.61,24,47.23H10v-.18a.79.79,0,0,0,.6-.26.83.83,0,0,0,.23-.57V23.67a1,1,0,0,0-.23-.6.78.78,0,0,0-.6-.28v-.18h5.73v.18a.79.79,0,0,0-.58.28.9.9,0,0,0-.26.6V46.08h7.35a1.08,1.08,0,0,0,.83-.44,4,4,0,0,0,.63-1A6.4,6.4,0,0,0,24,43.47a5.51,5.51,0,0,0,.11-.86Z"/><path class="cls-2" d="M46.82,46.22a1.05,1.05,0,0,0,.43.57,1.2,1.2,0,0,0,.72.26v.18H42v-.18a.5.5,0,0,0,.47-.26.74.74,0,0,0,0-.57l-2.54-7H29.81l-2.54,7a.74.74,0,0,0,.05.57.48.48,0,0,0,.46.26v.18H24.92v-.18a1.12,1.12,0,0,0,.69-.26,1.45,1.45,0,0,0,.46-.57l8.5-23.61h4.58v.18a.5.5,0,0,0-.47.28.83.83,0,0,0,0,.6ZM39.52,38,34.85,25.29,30.23,38Z"/><path class="cls-2" d="M29,53.33a.91.91,0,0,0-.23.6V76.48a.82.82,0,0,0,.23.58.76.76,0,0,0,.6.25v.19h-5l-12.71-22V76.48a.87.87,0,0,0,.23.58.73.73,0,0,0,.56.25v.19H10v-.19a.79.79,0,0,0,.6-.25.87.87,0,0,0,.23-.58V53.93a1,1,0,0,0-.23-.6.77.77,0,0,0-.6-.27v-.19h5.17L27.64,74.49V53.93a1,1,0,0,0-.23-.6.74.74,0,0,0-.6-.27v-.19h2.82v.19A.74.74,0,0,0,29,53.33Z"/><path class="cls-2" d="M52.22,76.48a1.13,1.13,0,0,0,.44.58,1.18,1.18,0,0,0,.71.25v.19h-6v-.19a.48.48,0,0,0,.46-.25.77.77,0,0,0,.05-.58l-2.54-7H35.22l-2.54,7a.77.77,0,0,0,0,.58.5.5,0,0,0,.47.25v.19H30.32v-.19a1.07,1.07,0,0,0,.69-.25,1.59,1.59,0,0,0,.47-.58L40,52.87h4.57v.19a.47.47,0,0,0-.46.27.83.83,0,0,0-.05.6Zm-7.3-8.18L40.25,55.55,35.63,68.3Z"/><path class="cls-2" d="M69.5,52.87v.19a1.15,1.15,0,0,0-.72.27,1.33,1.33,0,0,0-.44.6L59.8,77.5H56.1L47.6,53.93a1.79,1.79,0,0,0-.46-.6,1.08,1.08,0,0,0-.7-.27v-.19h6v.19a.46.46,0,0,0-.48.27.88.88,0,0,0,0,.6l7.58,20.93L67.1,53.93a.7.7,0,0,0,0-.6.54.54,0,0,0-.51-.27v-.19Z"/><path class="cls-2" d="M75,76.48a.8.8,0,0,0,.25.58.79.79,0,0,0,.58.25v.19H70.1v-.19a.76.76,0,0,0,.6-.25.87.87,0,0,0,.23-.58V53.93a1,1,0,0,0-.23-.6.74.74,0,0,0-.6-.27v-.19h5.73v.19a.77.77,0,0,0-.58.27.88.88,0,0,0-.25.6Z"/><polygon class="cls-2" points="90.05 92.5 27.42 92.5 27.42 82.42 28.46 82.42 28.46 91.46 89.01 91.46 89.01 8.54 28.46 8.54 28.46 14.79 27.42 14.79 27.42 7.5 90.05 7.5 90.05 92.5"/><path class="cls-2" d="M49.78,41.08h.81L52.82,45l.66,1.27h0c0-.62-.1-1.31-.1-2V41.08h.75v6.17h-.81l-2.24-3.89-.66-1.27h0c0,.63.1,1.28.1,1.93v3.23h-.74Z"/><path class="cls-2" d="M58.07,41.08H59L61,47.25h-.83L59.13,43.8c-.22-.69-.42-1.37-.62-2.08h0c-.2.72-.39,1.39-.62,2.08l-1.08,3.45H56Zm-1,3.66h2.84v.63H57.08Z"/><path class="cls-2" d="M62.81,41.08h.79v6.17h-.79Z"/><path class="cls-2" d="M66.22,41.08H67v5.5H69.7v.67H66.22Z"/><path class="cls-2" d="M71.08,46.44l.47-.54a2.37,2.37,0,0,0,1.7.77c.81,0,1.29-.4,1.29-1s-.45-.83-1-1.09l-.89-.39a1.74,1.74,0,0,1-1.24-1.59A1.76,1.76,0,0,1,73.32,41a2.52,2.52,0,0,1,1.81.77l-.41.5a2,2,0,0,0-1.4-.58c-.69,0-1.15.35-1.15.91s.54.81,1,1l.88.38a1.71,1.71,0,0,1,1.27,1.65,1.87,1.87,0,0,1-2.1,1.75A2.93,2.93,0,0,1,71.08,46.44Z"/></svg>